HIERARCHY
ROOT Hips
{
	OFFSET -21.947001 39.810204 44.525997
	CHANNELS 6 Xposition Yposition Zposition Zrotation Xrotation Yrotation
	JOINT Chest
	{
		OFFSET -0.201599 0.334099 6.453201
		CHANNELS 6 Xposition Yposition Zposition Zrotation Xrotation Yrotation
		JOINT Chest2
		{
			OFFSET 0.000000 0.000000 3.568001
			CHANNELS 6 Xposition Yposition Zposition Zrotation Xrotation Yrotation
			JOINT Neck
			{
				OFFSET 0.000000 0.000000 8.296402
				CHANNELS 6 Xposition Yposition Zposition Zrotation Xrotation Yrotation
				JOINT Head
				{
					OFFSET 0.000000 0.000000 2.173901
					CHANNELS 6 Xposition Yposition Zposition Zrotation Xrotation Yrotation
					End Site
					{
						OFFSET 0.000000 0.000000 7.891998
					}
				}
			}
			JOINT LeftCollar
			{
				OFFSET 1.927601 0.221401 6.049000
				CHANNELS 6 Xposition Yposition Zposition Zrotation Xrotation Yrotation
				JOINT LeftShoulder
				{
					OFFSET 4.959700 0.000000 0.000000
					CHANNELS 6 Xposition Yposition Zposition Zrotation Xrotation Yrotation
					JOINT LeftElbow
					{
						OFFSET 0.000000 0.000000 -8.654202
						CHANNELS 6 Xposition Yposition Zposition Zrotation Xrotation Yrotation
						JOINT LeftWrist
						{
							OFFSET 0.000000 0.000000 -13.864101
							CHANNELS 6 Xposition Yposition Zposition Zrotation Xrotation Yrotation
							End Site
							{
								OFFSET 0.000000 0.000000 -2.173901
							}
						}
					}
				}
			}
			JOINT RightCollar
			{
				OFFSET -3.155701 -0.764999 6.687801
				CHANNELS 6 Xposition Yposition Zposition Zrotation Xrotation Yrotation
				JOINT RightShoulder
				{
					OFFSET -3.592899 0.000000 0.000000
					CHANNELS 6 Xposition Yposition Zposition Zrotation Xrotation Yrotation
					JOINT RightElbow
					{
						OFFSET 0.000000 0.000000 -10.352398
						CHANNELS 6 Xposition Yposition Zposition Zrotation Xrotation Yrotation
						JOINT RightWrist
						{
							OFFSET 0.000000 0.000000 -12.750301
							CHANNELS 6 Xposition Yposition Zposition Zrotation Xrotation Yrotation
							End Site
							{
								OFFSET 0.000000 0.000000 -2.173901
							}
						}
					}
				}
			}
		}
	}
	JOINT LeftHip
	{
		OFFSET 2.460600 -0.518101 -2.735500
		CHANNELS 6 Xposition Yposition Zposition Zrotation Xrotation Yrotation
		JOINT LeftKnee
		{
			OFFSET 0.000000 -0.000004 -17.005899
			CHANNELS 6 Xposition Yposition Zposition Zrotation Xrotation Yrotation
			JOINT LeftAnkle
			{
				OFFSET 0.000000 0.000000 -19.194401
				CHANNELS 6 Xposition Yposition Zposition Zrotation Xrotation Yrotation
				End Site
				{
					OFFSET 0.000000 -8.134600 0.000000
				}
			}
		}
	}
	JOINT RightHip
	{
		OFFSET -3.115499 -0.679600 -2.320301
		CHANNELS 6 Xposition Yposition Zposition Zrotation Xrotation Yrotation
		JOINT RightKnee
		{
			OFFSET 0.000000 -0.000004 -17.680401
			CHANNELS 6 Xposition Yposition Zposition Zrotation Xrotation Yrotation
			JOINT RightAnkle
			{
				OFFSET 0.000000 0.000000 -16.993797
				CHANNELS 6 Xposition Yposition Zposition Zrotation Xrotation Yrotation
				End Site
				{
					OFFSET 0.000000 -8.842300 0.000000
				}
			}
		}
	}
}
MOTION
Frames: 10
Frame Time: 0.041667
-26.166201 19.294905 16.950596 2481.882888 39.923900 -32.077102 -0.201604 0.334095 6.453198 52.773327 -6.904149 8.211694 0.000001 0.000000 3.567996 -24.065649 -4.597907 -4.947129 -0.000005 -0.000002 8.296405 236.303508 -171.768821 185.992690 -0.000005 -0.000000 2.173897 7.697581 -4.627942 10.383824 1.927596 0.221403 6.049006 -12.916373 0.911841 12.797866 4.959695 0.000002 0.000006 213.574988 188.756362 71.952047 -0.000004 -0.000001 -8.654194 86.372503 -17.999437 8.686274 -0.000001 -0.000005 -13.864094 4201.114503 -148.817036 189.059882 -3.155706 -0.765001 6.687803 59.443840 25.439895 -2.302015 -3.592901 0.000005 0.000008 -204.430663 207.913349 331.558774 -0.000010 0.000001 -10.352394 -400.726188 -20.693776 -355.357694 0.000002 -0.000004 -12.750310 -92.855049 196.892156 -178.173312 2.460600 -0.518109 -2.735502 112.762537 -18.634279 89.456873 -0.000003 -0.000001 -17.005909 -273.226145 234.354145 -26.436416 -0.000005 0.000002 -19.194401 583.637151 102.300975 350.698604 -3.115495 -0.679608 -2.320304 -130.993821 -16.432745 -109.188251 0.000005 -0.000005 -17.680401 -711.643311 200.255846 -310.316340 0.000001 0.000006 -16.993786 1087.465673 47.289668 -487.236954
-26.148098 19.290203 16.945799 2481.842453 39.892157 -32.042166 -0.201596 0.334097 6.453203 52.775687 -6.860284 8.176770 0.000004 0.000000 3.567996 -23.957322 -4.612701 -4.927254 0.000000 -0.000003 8.296391 236.131934 -171.850961 186.093203 0.000000 -0.000000 2.173902 7.681196 -4.583722 10.294449 1.927601 0.221402 6.048992 -12.957240 0.926127 12.840993 4.959702 -0.000004 0.000008 213.527942 188.793013 71.859594 -0.000002 0.000000 -8.654207 86.317397 -18.012221 8.677065 0.000002 -0.000003 -13.864098 4201.504425 -148.784401 189.400804 -3.155701 -0.764997 6.687802 59.624259 25.565209 -2.362035 -3.592894 0.000001 0.000004 -204.741109 208.110632 331.472168 -0.000004 -0.000001 -10.352399 -400.776649 -20.734859 -355.386682 -0.000001 -0.000002 -12.750306 -92.897287 196.892743 -178.160594 2.460600 -0.518103 -2.735502 112.747763 -18.629969 89.454441 -0.000002 -0.000007 -17.005901 -273.232046 234.305514 -26.432615 -0.000001 0.000002 -19.194395 583.567319 102.303065 350.780238 -3.115500 -0.679606 -2.320295 -130.975270 -16.411474 -109.213796 0.000003 -0.000010 -17.680401 -711.560857 200.272266 -310.327213 0.000001 0.000000 -16.993788 1087.517254 47.214038 -487.428145
-26.130394 19.284903 16.941692 2481.696670 40.172140 -31.910569 -0.201599 0.334100 6.453204 53.031593 -6.976505 8.305614 0.000006 0.000002 3.567999 -23.870073 -4.622934 -4.912199 -0.000004 -0.000004 8.296398 235.972217 -171.932336 186.194153 -0.000003 0.000004 2.173905 7.681520 -4.552948 10.192999 1.927599 0.221401 6.048995 -12.995830 0.926247 12.890245 4.959701 0.000005 0.000001 213.499569 188.849034 71.755502 -0.000001 0.000001 -8.654200 86.246376 -18.042221 8.680420 0.000003 0.000003 -13.864100 4201.906149 -148.730907 189.775754 -3.155704 -0.765000 6.687799 59.805225 25.690128 -2.401369 -3.592898 0.000000 0.000012 -205.019425 208.313270 331.390205 0.000001 0.000000 -10.352398 -400.825171 -20.770732 -355.431160 -0.000002 -0.000008 -12.750309 -92.894828 196.892415 -178.142357 2.460594 -0.518102 -2.735499 113.045812 -18.548806 89.679489 -0.000000 -0.000008 -17.005905 -273.255597 234.255626 -26.431317 -0.000002 0.000000 -19.194401 583.473773 102.299247 350.884767 -3.115495 -0.679601 -2.320304 -130.766840 -16.239109 -109.379633 0.000001 -0.000010 -17.680397 -711.474305 200.272170 -310.325711 0.000001 -0.000003 -16.993790 1087.579436 47.119897 -487.613325
-26.113501 19.279306 16.938297 2481.642028 40.143686 -31.876121 -0.201603 0.334102 6.453204 53.045517 -6.922244 8.282884 0.000003 0.000005 3.567999 -23.800885 -4.637296 -4.901821 -0.000003 -0.000006 8.296392 235.841296 -171.999900 186.283014 0.000001 0.000002 2.173906 7.680046 -4.532251 10.093034 1.927598 0.221401 6.048993 -13.030205 0.922121 12.927895 4.959698 -0.000002 0.000005 213.473150 188.949042 71.648602 0.000002 -0.000001 -8.654205 86.142646 -18.084145 8.700363 -0.000001 0.000001 -13.864100 4202.261975 -148.653303 190.131785 -3.155709 -0.764997 6.687805 59.842682 25.728496 -2.374040 -3.592894 0.000003 0.000011 -205.110198 208.444533 331.372911 0.000000 0.000002 -10.352390 -400.853421 -20.791781 -355.487331 -0.000004 0.000010 -12.750302 -92.872643 196.883550 -178.125009 2.460595 -0.518103 -2.735503 113.052021 -18.511578 89.668902 -0.000001 0.000001 -17.005901 -273.289939 234.206777 -26.434388 -0.000001 0.000002 -19.194401 583.351431 102.290593 351.015607 -3.115494 -0.679602 -2.320302 -130.736815 -16.258278 -109.390179 0.000001 -0.000010 -17.680405 -711.388791 200.253893 -310.321585 0.000000 0.000003 -16.993788 1087.660415 47.010515 -487.782276
-26.096399 19.276403 16.934893 2481.638968 40.108291 -31.849527 -0.201603 0.334095 6.453200 53.021997 -6.897387 8.258885 0.000005 0.000006 3.568001 -23.746582 -4.653974 -4.895145 -0.000001 -0.000002 8.296395 235.758787 -172.058612 186.348557 -0.000005 -0.000001 2.173913 7.658792 -4.525488 10.025393 1.927600 0.221404 6.048999 -13.037376 0.897158 12.978667 4.959704 0.000004 0.000004 213.426787 189.019065 71.507047 -0.000002 0.000000 -8.654207 86.034675 -18.132008 8.714516 0.000004 -0.000001 -13.864095 4202.551356 -148.555303 190.447749 -3.155702 -0.764997 6.687802 59.829076 25.739090 -2.306553 -3.592892 0.000002 0.000008 -205.148229 208.537533 331.347886 0.000001 0.000003 -10.352404 -400.871070 -20.824919 -355.534077 -0.000003 -0.000001 -12.750307 -92.827045 196.864616 -178.107332 2.460600 -0.518106 -2.735497 113.063680 -18.453025 89.698880 -0.000004 -0.000008 -17.005905 -273.354826 234.151589 -26.432352 -0.000004 0.000006 -19.194401 583.114997 102.271366 351.244008 -3.115498 -0.679602 -2.320296 -130.730968 -16.217231 -109.392146 0.000002 -0.000008 -17.680408 -711.269727 200.229823 -310.315766 0.000001 -0.000000 -16.993792 1087.767622 46.887466 -487.958550
-26.078899 19.275600 16.931099 2481.677873 40.065050 -31.826233 -0.201595 0.334094 6.453201 52.966006 -6.892250 8.232688 0.000001 0.000003 3.567997 -23.693134 -4.676061 -4.888707 0.000002 -0.000001 8.296402 235.711194 -172.089075 186.390603 -0.000005 -0.000001 2.173903 7.614535 -4.521716 9.995601 1.927601 0.221402 6.048997 -13.049012 0.886978 13.021385 4.959697 0.000005 0.000008 213.370861 189.107106 71.368790 0.000001 -0.000001 -8.654199 85.915543 -18.187014 8.735301 0.000001 -0.000002 -13.864098 4202.712658 -148.440720 190.650141 -3.155701 -0.765002 6.687801 59.749477 25.697228 -2.265613 -3.592896 0.000001 0.000011 -205.097166 208.604837 331.391981 -0.000007 0.000004 -10.352400 -400.889074 -20.867046 -355.575769 -0.000001 0.000005 -12.750307 -92.747965 196.838935 -178.085530 2.460600 -0.518103 -2.735501 113.077559 -18.380597 89.762285 -0.000000 -0.000003 -17.005899 -273.446979 234.091073 -26.427252 -0.000003 -0.000000 -19.194403 582.771083 102.245227 351.561366 -3.115493 -0.679598 -2.320299 -130.746077 -16.124420 -109.385678 0.000000 -0.000012 -17.680401 -711.126020 200.204155 -310.310302 -0.000001 -0.000000 -16.993784 1087.891549 46.747546 -488.148648
-26.061197 19.277308 16.927000 2481.763114 40.010992 -31.808860 -0.201596 0.334096 6.453197 52.872798 -6.906672 8.202536 0.000009 -0.000002 3.567999 -23.654408 -4.703772 -4.885959 0.000004 -0.000006 8.296392 235.669831 -172.092545 186.434480 -0.000007 -0.000002 2.173901 7.597645 -4.523884 9.968530 1.927601 0.221405 6.048993 -13.051266 0.878645 13.059799 4.959700 -0.000001 0.000006 213.310264 189.173946 71.237801 -0.000004 -0.000000 -8.654202 85.833785 -18.256157 8.757429 -0.000004 0.000004 -13.864101 4202.707850 -148.291753 190.738237 -3.155702 -0.765001 6.687799 59.599418 25.613199 -2.211152 -3.592898 0.000001 0.000010 -204.946082 208.640300 331.481703 -0.000003 -0.000001 -10.352394 -400.906997 -20.912487 -355.622788 0.000000 0.000005 -12.750306 -92.589921 196.810398 -178.060750 2.460603 -0.518106 -2.735507 113.088555 -18.291344 89.858720 0.000001 -0.000002 -17.005903 -273.569785 234.026433 -26.417778 -0.000001 0.000002 -19.194405 582.315428 102.214908 351.967790 -3.115496 -0.679605 -2.320301 -130.786675 -15.977114 -109.368971 0.000001 -0.000010 -17.680397 -710.957778 200.179949 -310.305603 0.000000 -0.000002 -16.993784 1088.030885 46.592651 -488.316670
-26.043697 19.279106 16.923395 2481.854256 39.957068 -31.796429 -0.201602 0.334096 6.453208 52.775738 -6.916462 8.179829 0.000003 -0.000001 3.567996 -23.637260 -4.733910 -4.887981 -0.000009 -0.000001 8.296393 235.692452 -172.080127 186.453823 -0.000002 0.000001 2.173899 7.583552 -4.524933 9.969053 1.927593 0.221407 6.048997 -13.055878 0.870697 13.101927 4.959696 0.000007 0.000010 213.258027 189.257411 71.105275 -0.000002 -0.000001 -8.654205 85.760306 -18.328206 8.781303 0.000000 0.000000 -13.864099 4202.546548 -148.104319 190.711217 -3.155710 -0.764999 6.687797 59.381630 25.486234 -2.141823 -3.592889 0.000009 0.000006 -204.710072 208.626735 331.607815 -0.000002 -0.000003 -10.352392 -400.906341 -20.951201 -355.657813 0.000000 -0.000001 -12.750306 -92.410991 196.775838 -178.043088 2.460592 -0.518099 -2.735500 113.087654 -18.211094 89.954343 -0.000001 -0.000007 -17.005899 -273.698767 233.964715 -26.424077 -0.000004 0.000002 -19.194399 581.817862 102.189868 352.399785 -3.115499 -0.679602 -2.320305 -130.832424 -15.804798 -109.352893 -0.000002 -0.000017 -17.680397 -710.775768 200.164622 -310.295658 0.000002 -0.000005 -16.993788 1088.188361 46.432367 -488.483873
-26.026693 19.280905 16.920294 2481.949114 39.901774 -31.786437 -0.201600 0.334096 6.453200 52.675846 -6.927178 8.159105 0.000002 0.000002 3.567997 -23.639232 -4.761089 -4.893387 0.000001 -0.000001 8.296400 235.751356 -172.054719 186.457594 0.000001 -0.000000 2.173905 7.579360 -4.529534 9.991109 1.927604 0.221403 6.049005 -13.077986 0.866204 13.155977 4.959702 0.000000 0.000014 213.220092 189.377636 70.961089 0.000005 -0.000000 -8.654195 85.709366 -18.371508 8.804630 -0.000002 -0.000003 -13.864098 4202.207771 -147.876341 190.597125 -3.155702 -0.764998 6.687802 59.247219 25.398718 -2.132517 -3.592896 -0.000000 0.000008 -204.521327 208.663659 331.743162 -0.000002 0.000000 -10.352393 -400.892025 -21.002222 -355.688849 0.000000 0.000000 -12.750301 -92.154231 196.742697 -178.015343 2.460597 -0.518103 -2.735501 113.077149 -18.137543 90.046352 0.000000 -0.000005 -17.005903 -273.832857 233.908216 -26.441040 -0.000004 0.000002 -19.194401 581.281883 102.170409 352.853856 -3.115491 -0.679602 -2.320301 -130.882612 -15.608792 -109.333372 0.000000 -0.000012 -17.680405 -710.583156 200.162928 -310.281260 0.000000 -0.000003 -16.993786 1088.351302 46.269108 -488.654355
-26.011196 19.280600 16.917799 2482.002444 39.856063 -31.769532 -0.201597 0.334095 6.453199 52.608105 -6.913839 8.142640 0.000001 0.000000 3.567994 -23.662822 -4.792916 -4.904028 0.000001 -0.000003 8.296399 235.829165 -172.022590 186.457539 -0.000002 0.000004 2.173896 7.587773 -4.541217 10.011634 1.927601 0.221404 6.049001 -13.122739 0.864918 13.230825 4.959703 0.000003 0.000010 213.206541 189.531876 70.819916 0.000002 -0.000003 -8.654203 85.708718 -18.406527 8.834011 -0.000001 -0.000007 -13.864098 4201.576552 -147.616302 190.297649 -3.155706 -0.765001 6.687807 59.138653 25.317295 -2.161009 -3.592901 0.000003 0.000007 -204.324590 208.705692 331.906540 -0.000007 -0.000002 -10.352398 -400.841836 -21.044890 -355.698166 0.000000 0.000001 -12.750305 -91.841387 196.738299 -178.281611 2.460601 -0.518101 -2.735503 113.064882 -18.080916 90.105795 -0.000000 0.000002 -17.005901 -273.953314 233.863710 -26.472010 -0.000003 0.000001 -19.194403 580.785083 102.163524 353.263340 -3.115495 -0.679607 -2.320307 -130.911162 -15.455386 -109.311311 0.000005 -0.000013 -17.680397 -710.410380 200.159185 -310.262053 0.000000 0.000000 -16.993792 1088.519598 46.107636 -488.764184
